# xmcd
#
# Track frame offsets:
#	150
#	24668
#	29332
#	63344
#	93318
#	115800
#	128640
#	166318
#	170553
#	176924
#	183078
#	191834
#	197833
#	206704
#	217278
#	233407
#	263454
#	275901
#	286234
#	299897
#	309722
#	317893
#	325765
#	332380
#	355160
#
# Disc length: 4779 seconds
#
# Revision: 0
# Processed by: cddbd v1.5.2PL0 Copyright (c) Steve Scherf et al.
# Submitted via: EZCDAudioConverter 1.3.4.1
#
DISCID=8612a919
DTITLE=Beach Boys - The Smile Sessions
DYEAR=2011
DGENRE=
TTITLE0=Vega-Tables - Fade
TTITLE1=Vega-Tables - Ballad Insert
TTITLE2=Holidays
TTITLE3=Wind Chimes [Version 1]
TTITLE4=Wind Chimes [Version 2]
TTITLE5=Wind Chimes [Version 2 Tag]
TTITLE6=Elements - Fire
TTITLE7=Da Da [Taped Piano Strings]
TTITLE8=Da Da [Fender Rhodes]
TTITLE9=Love To Say Dada - Part 1
TTITLE10=Love To Say Dada - Part 2
TTITLE11=Love To Say Dada - Part 2 [Master Take]
TTITLE12=Love To Say Dada - Part 2 [Second Day]
TTITLE13=Cool, Cool Water [Version 1]
TTITLE14=Cool, Cool Water [Version 2]
TTITLE15=You're Welcome
TTITLE16=You're With Me Tonight
TTITLE17=Tune X (Carl Wilson)
TTITLE18=I Don't Know (Dennis Wilson)
TTITLE19=Three Blind Mice
TTITLE20=Teeter Totter Love (Jasper Daily)
TTITLE21=Psycodelic Sounds - Underwater Chant
TTITLE22=Hal Blaine Vega-Tables Promo Session
TTITLE23=Heroes And Villains - Early Version Outtake Sections
TTITLE24=Elements - Fire [Burning Wood Session]
EXTD=
EXTT0=
EXTT1=
EXTT2=
EXTT3=
EXTT4=
EXTT5=
EXTT6=
EXTT7=
EXTT8=
EXTT9=
EXTT10=
EXTT11=
EXTT12=
EXTT13=
EXTT14=
EXTT15=
EXTT16=
EXTT17=
EXTT18=
EXTT19=
EXTT20=
EXTT21=
EXTT22=
EXTT23=
EXTT24=
PLAYORDER=
